<?xml version="1.0" standalone="no"?>
<!DOCTYPE svg PUBLIC "-//W3C//DTD SVG 20010904//EN"
 "http://www.w3.org/TR/2001/REC-SVG-20010904/DTD/svg10.dtd">
<svg version="1.0" xmlns="http://www.w3.org/2000/svg"
 width="1032.000000pt" height="487.000000pt" viewBox="0 0 1032.000000 487.000000"
 preserveAspectRatio="xMidYMid meet">
<metadata>
Created by potrace 1.15, written by Peter Selinger 2001-2017
</metadata>
<g transform="translate(0.000000,487.000000) scale(0.100000,-0.100000)"
fill="#000000" stroke="none">
<path d="M890 3500 l0 -100 195 0 195 0 0 -530 0 -530 125 0 125 0 0 530 0
530 195 0 195 0 0 100 0 100 -515 0 -515 0 0 -100z"/>
<path d="M2040 2970 l0 -630 125 0 125 0 0 270 0 270 170 0 170 0 0 -270 0
-270 125 0 125 0 0 630 0 630 -125 0 -125 0 0 -255 0 -255 -170 0 -170 0 0
255 0 255 -125 0 -125 0 0 -630z"/>
<path d="M3120 2970 l0 -630 430 0 430 0 0 100 0 100 -305 0 -305 0 0 175 0
175 260 0 260 0 0 100 0 100 -260 0 -260 0 0 155 0 155 300 0 300 0 0 100 0
100 -425 0 -425 0 0 -630z"/>
<path d="M4485 3588 c-15 -42 -405 -1237 -405 -1242 0 -3 60 -6 133 -6 l132 0
36 128 36 127 185 3 185 2 35 -127 34 -128 136 -3 136 -3 -73 228 c-41 126
-132 408 -202 628 l-129 400 -117 3 c-88 2 -119 -1 -122 -10z m180 -551 c32
-114 55 -210 53 -213 -3 -2 -57 -3 -120 -2 l-115 3 60 212 c34 117 62 212 63
210 1 -1 27 -96 59 -210z"/>
<path d="M5140 3500 l0 -100 190 0 190 0 0 -530 0 -530 130 0 130 0 0 530 0
530 190 0 190 0 0 100 0 100 -510 0 -510 0 0 -100z"/>
<path d="M6290 2970 l0 -630 125 0 125 0 0 235 0 235 88 0 87 0 118 -235 118
-235 134 0 c123 0 135 2 135 18 0 10 -4 22 -9 28 -4 5 -63 115 -130 245 l-121
237 44 26 c111 65 176 185 176 326 0 187 -102 317 -286 364 -49 13 -118 16
-333 16 l-271 0 0 -630z m494 420 c97 -22 155 -112 140 -218 -8 -57 -40 -102
-93 -131 -38 -21 -61 -25 -168 -29 l-123 -5 0 197 0 196 103 0 c56 0 120 -5
141 -10z"/>
<path d="M7352 3113 c3 -469 4 -490 24 -539 47 -115 114 -183 223 -226 47 -19
75 -22 176 -22 100 0 130 4 177 23 109 42 181 119 225 236 16 46 18 93 21 533
l3 482 -125 0 -125 0 -3 -462 -3 -463 -25 -50 c-34 -68 -77 -95 -151 -95 -51
0 -63 4 -93 30 -71 63 -71 61 -74 578 l-3 462 -125 0 -125 0 3 -487z"/>
<path d="M8410 2970 l0 -630 116 0 116 0 -4 445 c-2 245 -2 442 -1 438 2 -5
30 -105 63 -223 34 -118 63 -223 66 -232 4 -15 17 -18 69 -18 l64 0 30 98 c16
53 49 160 72 237 23 77 44 142 47 145 2 3 1 -196 -3 -442 l-7 -448 121 0 121
0 0 630 0 630 -158 0 -158 0 -59 -207 c-32 -115 -61 -214 -65 -222 -4 -7 -32
85 -62 205 l-54 219 -157 3 -157 3 0 -631z"/>
<path d="M3090 1475 l0 -505 90 0 90 0 1 343 0 342 51 -178 51 -178 55 3 55 3
53 180 c30 99 56 185 59 190 2 6 1 -151 -2 -347 l-6 -358 96 0 97 0 0 505 0
505 -125 0 -124 0 -20 -67 c-11 -38 -32 -111 -47 -163 -14 -52 -29 -101 -33
-107 -4 -7 -26 66 -50 162 l-43 175 -124 0 -124 0 0 -505z"/>
<path d="M3932 1593 c3 -369 4 -391 25 -440 32 -81 76 -128 150 -165 59 -29
75 -32 157 -32 50 0 109 5 132 12 90 27 167 102 197 192 19 58 21 107 19 498
l-2 322 -100 0 -100 0 0 -367 c0 -336 -2 -372 -19 -408 -25 -55 -52 -76 -104
-82 -55 -6 -100 15 -124 60 -16 29 -18 71 -21 415 l-3 382 -105 0 -105 0 3
-387z"/>
<path d="M4780 1475 l0 -505 100 0 100 0 2 307 3 306 131 -304 131 -304 102
-3 101 -3 0 506 0 505 -100 0 -100 0 -2 -307 -3 -307 -130 305 -131 304 -102
3 -102 3 0 -506z"/>
<path d="M5630 1475 l0 -507 198 4 197 3 67 32 c111 52 190 151 224 278 22 81
18 318 -6 397 -37 121 -132 223 -250 270 -48 19 -80 22 -242 26 l-188 4 0
-507z m356 316 c51 -23 99 -80 121 -146 26 -72 25 -279 -1 -354 -35 -101 -120
-161 -230 -161 l-46 0 0 340 0 340 58 0 c34 0 74 -8 98 -19z"/>
<path d="M6520 1895 l0 -85 95 0 95 0 0 -340 0 -340 -95 0 -95 0 0 -80 0 -80
295 0 295 0 0 80 0 80 -100 0 -100 0 0 340 0 340 100 0 100 0 0 85 0 85 -295
0 -295 0 0 -85z"/>
<path d="M880 1470 c0 -20 7 -20 885 -20 878 0 885 0 885 20 0 20 -7 20 -885
20 -878 0 -885 0 -885 -20z"/>
<path d="M7510 1470 c0 -20 7 -20 885 -20 878 0 885 0 885 20 0 20 -7 20 -885
20 -878 0 -885 0 -885 -20z"/>
</g>
</svg>
