<svg id="Capa_1" data-name="Capa 1" xmlns="http://www.w3.org/2000/svg" viewBox="0 0 1032 402"><defs><style>.cls-1,.cls-3{fill:#fff;}.cls-2{fill:none;stroke:#fff;stroke-miterlimit:10;stroke-width:3px;}.cls-3{font-size:89px;font-family:RobotoMonoForPowerline-Bold, Roboto Mono for Powerline;font-weight:700;}.cls-4{font-size:71px;}</style></defs><title>desissMesa de trabajo 2 copia</title><path class="cls-1" d="M191.23,100.78H152.45v106H128.09v-106H89.83V81h101.4Z"/><path class="cls-1" d="M288,206.75H264v-54.5H228.37v54.5h-24.1V81h24.1v51.56H264V81h24Z"/><path class="cls-1" d="M388.5,151.65H336.85v35.5h60.37v19.6H312.5V81H397v19.78H336.85v31.7H388.5Z"/><path class="cls-1" d="M479.1,180.5H441.36l-7.43,26.25H408.36L449.56,81h22L512,206.75H486.44Zm-31.78-20.65H473.4l-12.87-46.29Z"/><path class="cls-1" d="M615.82,100.78H577v106H552.69v-106H514.43V81H615.82Z"/><path class="cls-1" d="M672.22,159.77H653.83v47H629.56V81H671.7a67.75,67.75,0,0,1,18.92,2.46,42.07,42.07,0,0,1,14.47,7.21,31.72,31.72,0,0,1,9.24,11.84,39.07,39.07,0,0,1,3.24,16.41,42.88,42.88,0,0,1-1.6,12.13,32.75,32.75,0,0,1-11.75,17.15,47.08,47.08,0,0,1-9.37,5.52l27,51.91v1.12h-26Zm-18.39-19.69h18q10.28,0,15.85-5.23t5.57-14.29q0-9.42-5.44-14.64t-16.07-5.23H653.83Z"/><path class="cls-1" d="M819.48,81l.09,83.35a56.17,56.17,0,0,1-2.9,18.74A37.58,37.58,0,0,1,808.3,197a35.71,35.71,0,0,1-13.39,8.6,51.66,51.66,0,0,1-18,2.93,47.63,47.63,0,0,1-17.14-2.93A35.94,35.94,0,0,1,746.67,197a38.39,38.39,0,0,1-8.42-13.87,55,55,0,0,1-3-18.78L735.36,81h24.27l.08,83.35q.09,12.18,4.45,18.39T776.9,189q8.9,0,13.6-6.22t4.8-18.39L795.38,81Z"/><path class="cls-1" d="M871.65,81l11.92,47.24L897.13,81h30.14V206.75H905V169.53l1-58.82L889.53,165.3h-12L862.75,113l1,56.49v37.22H841.51V81Z"/><path class="cls-1" d="M333.19,243.57l9.51,37.69,10.82-37.69h24V343.89H359.79v-29.7l.82-46.92-13.16,43.55h-9.57l-11.79-41.69.83,45.06v29.7H309.15V243.57Z"/><path class="cls-1" d="M460.93,243.57l.07,66.49A45.05,45.05,0,0,1,458.7,325,29.88,29.88,0,0,1,452,336.07a28.44,28.44,0,0,1-10.68,6.86A41.07,41.07,0,0,1,427,345.27a37.89,37.89,0,0,1-13.68-2.34,28.5,28.5,0,0,1-10.44-6.83,30.65,30.65,0,0,1-6.72-11.05,44.11,44.11,0,0,1-2.38-15l.07-66.49h19.37l.06,66.49q.08,9.72,3.55,14.68t10.17,5q7.09,0,10.85-5t3.82-14.68l.07-66.49Z"/><path class="cls-1" d="M544.93,343.89h-19.3l-27.9-64.7v64.7h-19.5V243.57h19.5L525.43,308l.07-64.42h19.43Z"/><path class="cls-1" d="M563.05,343.89V243.57h26A46.25,46.25,0,0,1,607.11,247,40.19,40.19,0,0,1,621,256.49a42.24,42.24,0,0,1,8.89,14.57A53.25,53.25,0,0,1,633,289.67v8.26a52.94,52.94,0,0,1-3.13,18.57A43.17,43.17,0,0,1,621.06,331a39.08,39.08,0,0,1-13.57,9.47,44.22,44.22,0,0,1-17.5,3.38Zm19.5-84.61v69H590a22.22,22.22,0,0,0,9.75-2.07,20.06,20.06,0,0,0,7.3-6,28,28,0,0,0,4.58-9.55,46.93,46.93,0,0,0,1.59-12.78v-8.4a45.8,45.8,0,0,0-1.55-12.3,27.71,27.71,0,0,0-4.62-9.54,21.14,21.14,0,0,0-7.58-6.21,23.51,23.51,0,0,0-10.44-2.2Z"/><path class="cls-1" d="M652.42,243.57h58v15.64H690.86v69.11h19.57v15.57h-58V328.32H671.5V259.21H652.42Z"/><line class="cls-2" x1="88.84" y1="294.15" x2="264.4" y2="294.15"/><line class="cls-2" x1="751.71" y1="294.15" x2="927.27" y2="294.15"/><text class="cls-3" transform="translate(-432.52 -451.42)">THEA<tspan x="0" y="83">TRUM</tspan><tspan class="cls-4" x="213.63" y="83"> </tspan><tspan class="cls-4"><tspan x="0.3" y="152">MUNDI</tspan></tspan></text></svg>